<svg width="1763" height="1709" viewBox="0 0 1763 1709" fill="none" xmlns="http://www.w3.org/2000/svg">
<path d="M1276.65 578.325C1493.74 443.316 1638.11 403.237 1709.75 458.113C1840.58 558.329 1728.9 975.164 1374.66 1708.66L1255.75 1688.74L1371.81 1368.91C1263.71 1372.08 1152.66 1380.1 1104.81 1335.56C1069.05 1302.26 1061.76 1233.69 1059.83 1215.63C1053.03 1151.75 1075.25 1133.84 1056.6 1090.37C1039.14 1049.7 1007.07 1035.98 1012.76 1007.62C1015.87 992.088 1027.25 987.488 1043.02 969.87C1067.65 942.357 1075.49 913.832 1086.58 873.551C1112.8 778.248 1086.07 742.806 1105.57 692.245C1119.66 655.691 1158.75 609.051 1276.64 578.31L1276.65 578.325ZM335.758 3.77637C425.419 -7.95161 525.7 -4.19499 686.509 195.622L729.498 272.047C775.671 421.711 748.819 470.861 742.729 509.639C734.319 563.283 693.372 580.65 668.378 676.487C657.814 716.995 650.327 745.676 657.919 781.893C662.775 805.08 670.348 814.775 665.264 829.812C655.992 857.275 621.29 853.109 585.759 879.657C547.798 908.035 558.106 934.703 520.205 986.738C509.485 1001.44 468.794 1057.29 421.089 1068.27C357.248 1082.94 274.099 1018.82 216.698 912.71L113.157 1299.13L0 1256.84C60.0942 442.864 172.021 25.1951 335.758 3.77637Z" fill="#FDFADB"/>
</svg>
