<svg width="2802" height="1272" viewBox="0 0 2802 1272" fill="none" xmlns="http://www.w3.org/2000/svg">
<g clip-path="url(#clip0_523_147)">
<g filter="url(#filter0_f_523_147)">
<circle cx="826.485" cy="143.485" r="747.047" transform="rotate(-30 826.485 143.485)" fill="#FDFADB"/>
<circle cx="826.485" cy="143.485" r="747.047" transform="rotate(-30 826.485 143.485)" fill="#FDFADB"/>
</g>
<circle cx="826.485" cy="143.485" r="747.047" transform="rotate(-30 826.485 143.485)" fill="#FDFADB"/>
<circle cx="826.485" cy="143.485" r="747.047" transform="rotate(-30 826.485 143.485)" fill="#FDFADB"/>
<g filter="url(#filter1_f_523_147)">
<circle cx="2114" cy="768" r="457.532" transform="rotate(-30 2114 768)" fill="#FFFDE5"/>
<circle cx="2114" cy="768" r="457.532" transform="rotate(-30 2114 768)" fill="#FFFDE5"/>
</g>
<circle cx="2114" cy="768" r="457.532" transform="rotate(-30 2114 768)" fill="#FDFADB"/>
<circle cx="2114" cy="768" r="457.532" transform="rotate(-30 2114 768)" fill="#FFFDE5"/>
</g>
<defs>
<filter id="filter0_f_523_147" x="27.7135" y="-655.287" width="1597.54" height="1597.54" filterUnits="userSpaceOnUse" color-interpolation-filters="sRGB">
<feFlood flood-opacity="0" result="BackgroundImageFix"/>
<feBlend mode="normal" in="SourceGraphic" in2="BackgroundImageFix" result="shape"/>
<feGaussianBlur stdDeviation="25.8" result="effect1_foregroundBlur_523_147"/>
</filter>
<filter id="filter1_f_523_147" x="1604.79" y="258.792" width="1018.42" height="1018.42" filterUnits="userSpaceOnUse" color-interpolation-filters="sRGB">
<feFlood flood-opacity="0" result="BackgroundImageFix"/>
<feBlend mode="normal" in="SourceGraphic" in2="BackgroundImageFix" result="shape"/>
<feGaussianBlur stdDeviation="25.8" result="effect1_foregroundBlur_523_147"/>
</filter>
<clipPath id="clip0_523_147">
<rect width="2802" height="1272" fill="white"/>
</clipPath>
</defs>
</svg>
